<svg width="764" height="223" viewBox="0 0 764 223" fill="none" xmlns="http://www.w3.org/2000/svg">
<g filter="url(#filter0_d_7_26)">
<path fill-rule="evenodd" clip-rule="evenodd" d="M108.448 29.8579C100.638 22.0474 87.9745 22.0474 80.164 29.8579L67.2765 42.7454L90.7041 66.3179C91.7317 66.0303 92.8151 65.8765 93.9345 65.8765C100.541 65.8765 105.896 71.2318 105.896 77.838C105.896 78.9832 105.735 80.0908 105.434 81.1394L126.639 102.475C127.535 102.26 128.471 102.147 129.433 102.147C136.039 102.147 141.394 107.502 141.394 114.108C141.394 120.714 136.039 126.069 129.433 126.069C122.827 126.069 117.471 120.714 117.471 114.108C117.471 112.476 117.798 110.92 118.391 109.502L98.9506 89.9417V134.114C103.051 136.011 105.896 140.161 105.896 144.976C105.896 151.582 100.541 156.938 93.9345 156.938C87.3284 156.938 81.9731 151.582 81.9731 144.976C81.9731 140.47 84.4653 136.545 88.1467 134.506V88.3084C84.4653 86.269 81.9731 82.3445 81.9731 77.838C81.9731 76.3557 82.2427 74.9364 82.7356 73.6264L59.637 50.3849L15.8579 94.164C8.04738 101.975 8.04738 114.638 15.8579 122.448L80.164 186.754C87.9745 194.565 100.638 194.565 108.448 186.754L172.754 122.448C180.565 114.638 180.565 101.975 172.754 94.164L108.448 29.8579Z" fill="#FC902C"/>
</g>
<path d="M251.5 141.909C244.937 141.909 239.312 140.972 234.625 139.097C229.965 137.25 226.343 134.693 223.758 131.426C221.201 128.188 219.767 124.466 219.454 120.261H242.125C242.352 121.653 242.92 122.776 243.829 123.628C244.738 124.48 245.903 125.091 247.323 125.46C248.772 125.858 250.392 126.057 252.181 126.057C255.221 126.057 257.735 125.318 259.724 123.841C261.741 122.364 262.75 119.693 262.75 115.83V104.75H262.068C261.215 106.966 259.909 108.855 258.147 110.418C256.386 111.952 254.269 113.131 251.798 113.955C249.326 114.75 246.613 115.148 243.659 115.148C239 115.148 234.71 114.068 230.789 111.909C226.897 109.75 223.772 106.327 221.414 101.639C219.085 96.9517 217.92 90.8295 217.92 83.2727C217.92 75.375 219.142 68.9545 221.585 64.0114C224.056 59.0682 227.238 55.446 231.13 53.1449C235.051 50.8438 239.17 49.6932 243.488 49.6932C246.727 49.6932 249.568 50.2614 252.011 51.3977C254.454 52.5057 256.5 53.9972 258.147 55.8722C259.795 57.7187 261.045 59.75 261.897 61.9659H262.409V50.5455H285.931V115.83C285.931 121.369 284.497 126.071 281.627 129.935C278.786 133.827 274.781 136.795 269.61 138.841C264.44 140.886 258.403 141.909 251.5 141.909ZM252.352 98.4432C254.511 98.4432 256.357 97.8466 257.892 96.6534C259.454 95.4318 260.647 93.6989 261.471 91.4545C262.323 89.1818 262.75 86.4545 262.75 83.2727C262.75 80.0341 262.323 77.2642 261.471 74.9631C260.647 72.6335 259.454 70.858 257.892 69.6364C256.357 68.3864 254.511 67.7614 252.352 67.7614C250.193 67.7614 248.346 68.3864 246.812 69.6364C245.306 70.858 244.142 72.6335 243.318 74.9631C242.522 77.2642 242.125 80.0341 242.125 83.2727C242.125 86.5114 242.522 89.267 243.318 91.5398C244.142 93.7841 245.306 95.5028 246.812 96.696C248.346 97.8608 250.193 98.4432 252.352 98.4432ZM297.895 116V50.5455H321.418V116H297.895ZM309.656 43.7273C306.475 43.7273 303.747 42.6761 301.475 40.5739C299.202 38.4716 298.066 35.9432 298.066 32.9886C298.066 30.0341 299.202 27.5057 301.475 25.4034C303.747 23.3011 306.475 22.25 309.656 22.25C312.867 22.25 315.594 23.3011 317.838 25.4034C320.111 27.5057 321.247 30.0341 321.247 32.9886C321.247 35.9432 320.111 38.4716 317.838 40.5739C315.594 42.6761 312.867 43.7273 309.656 43.7273ZM372.437 50.5455V67.5909H329.312V50.5455H372.437ZM337.664 34.8636H361.187V94.9489C361.187 95.858 361.343 96.625 361.656 97.25C361.968 97.8466 362.451 98.3011 363.105 98.6136C363.758 98.8977 364.596 99.0398 365.619 99.0398C366.329 99.0398 367.153 98.9545 368.09 98.7841C369.056 98.6136 369.767 98.4716 370.221 98.358L373.63 114.892C372.579 115.205 371.073 115.588 369.113 116.043C367.181 116.497 364.88 116.795 362.21 116.938C356.812 117.222 352.281 116.668 348.616 115.276C344.951 113.855 342.196 111.625 340.349 108.585C338.502 105.545 337.607 101.739 337.664 97.1648V34.8636ZM382.036 116V50.5455H405.558V116H382.036ZM393.797 43.7273C390.615 43.7273 387.888 42.6761 385.615 40.5739C383.343 38.4716 382.206 35.9432 382.206 32.9886C382.206 30.0341 383.343 27.5057 385.615 25.4034C387.888 23.3011 390.615 22.25 393.797 22.25C397.007 22.25 399.735 23.3011 401.979 25.4034C404.252 27.5057 405.388 30.0341 405.388 32.9886C405.388 35.9432 404.252 38.4716 401.979 40.5739C399.735 42.6761 397.007 43.7273 393.797 43.7273ZM449.078 141.909C442.515 141.909 436.89 140.972 432.203 139.097C427.544 137.25 423.921 134.693 421.336 131.426C418.779 128.188 417.345 124.466 417.032 120.261H439.703C439.93 121.653 440.498 122.776 441.407 123.628C442.316 124.48 443.481 125.091 444.902 125.46C446.35 125.858 447.97 126.057 449.759 126.057C452.799 126.057 455.313 125.318 457.302 123.841C459.319 122.364 460.328 119.693 460.328 115.83V104.75H459.646C458.794 106.966 457.487 108.855 455.725 110.418C453.964 111.952 451.848 113.131 449.376 113.955C446.904 114.75 444.191 115.148 441.237 115.148C436.578 115.148 432.288 114.068 428.367 111.909C424.475 109.75 421.35 106.327 418.992 101.639C416.663 96.9517 415.498 90.8295 415.498 83.2727C415.498 75.375 416.72 68.9545 419.163 64.0114C421.634 59.0682 424.816 55.446 428.708 53.1449C432.629 50.8438 436.748 49.6932 441.066 49.6932C444.305 49.6932 447.146 50.2614 449.589 51.3977C452.032 52.5057 454.078 53.9972 455.725 55.8722C457.373 57.7187 458.623 59.75 459.475 61.9659H459.987V50.5455H483.509V115.83C483.509 121.369 482.075 126.071 479.205 129.935C476.365 133.827 472.359 136.795 467.188 138.841C462.018 140.886 455.981 141.909 449.078 141.909ZM449.93 98.4432C452.089 98.4432 453.936 97.8466 455.47 96.6534C457.032 95.4318 458.225 93.6989 459.049 91.4545C459.902 89.1818 460.328 86.4545 460.328 83.2727C460.328 80.0341 459.902 77.2642 459.049 74.9631C458.225 72.6335 457.032 70.858 455.47 69.6364C453.936 68.3864 452.089 67.7614 449.93 67.7614C447.771 67.7614 445.924 68.3864 444.39 69.6364C442.884 70.858 441.72 72.6335 440.896 74.9631C440.1 77.2642 439.703 80.0341 439.703 83.2727C439.703 86.5114 440.1 89.267 440.896 91.5398C441.72 93.7841 442.884 95.5028 444.39 96.696C445.924 97.8608 447.771 98.4432 449.93 98.4432ZM518.996 79.1818V116H495.473V50.5455H517.803V62.9886H518.485C519.905 58.8409 522.405 55.5881 525.985 53.2301C529.593 50.8722 533.797 49.6932 538.598 49.6932C543.229 49.6932 547.249 50.7585 550.658 52.8892C554.095 54.9915 556.752 57.8892 558.627 61.5824C560.53 65.2756 561.468 69.4943 561.439 74.2386V116H537.916V79.1818C537.945 75.9432 537.121 73.4006 535.445 71.554C533.797 69.7074 531.496 68.7841 528.541 68.7841C526.61 68.7841 524.919 69.2102 523.47 70.0625C522.05 70.8864 520.956 72.0795 520.189 73.642C519.422 75.1761 519.024 77.0227 518.996 79.1818ZM604.585 117.193C597.483 117.193 591.404 115.787 586.347 112.974C581.29 110.134 577.412 106.185 574.713 101.128C572.014 96.0426 570.665 90.1477 570.665 83.4432C570.665 76.7386 572.014 70.858 574.713 65.8011C577.412 60.7159 581.29 56.767 586.347 53.9545C591.404 51.1136 597.483 49.6932 604.585 49.6932C611.688 49.6932 617.767 51.1136 622.824 53.9545C627.881 56.767 631.759 60.7159 634.458 65.8011C637.156 70.858 638.506 76.7386 638.506 83.4432C638.506 90.1477 637.156 96.0426 634.458 101.128C631.759 106.185 627.881 110.134 622.824 112.974C617.767 115.787 611.688 117.193 604.585 117.193ZM604.756 99.8068C606.745 99.8068 608.463 99.1392 609.912 97.804C611.361 96.4687 612.483 94.5653 613.279 92.0938C614.074 89.6222 614.472 86.6818 614.472 83.2727C614.472 79.8352 614.074 76.8949 613.279 74.4517C612.483 71.9801 611.361 70.0767 609.912 68.7415C608.463 67.4062 606.745 66.7386 604.756 66.7386C602.654 66.7386 600.85 67.4062 599.344 68.7415C597.838 70.0767 596.688 71.9801 595.892 74.4517C595.097 76.8949 594.699 79.8352 594.699 83.2727C594.699 86.6818 595.097 89.6222 595.892 92.0938C596.688 94.5653 597.838 96.4687 599.344 97.804C600.85 99.1392 602.654 99.8068 604.756 99.8068ZM648.051 116V50.5455H670.892V62.9886H671.574C672.767 58.3864 674.656 55.0199 677.242 52.8892C679.855 50.7585 682.909 49.6932 686.404 49.6932C687.426 49.6932 688.435 49.7784 689.429 49.9489C690.452 50.0909 691.432 50.304 692.37 50.5881V70.6591C691.205 70.2614 689.77 69.9631 688.066 69.7642C686.361 69.5653 684.898 69.4659 683.676 69.4659C681.375 69.4659 679.301 69.9915 677.455 71.0426C675.637 72.0653 674.202 73.5142 673.151 75.3892C672.1 77.2358 671.574 79.4091 671.574 81.9091V116H648.051ZM727.696 117.193C720.708 117.193 714.685 115.858 709.628 113.188C704.6 110.489 700.722 106.625 697.995 101.597C695.296 96.5398 693.946 90.4886 693.946 83.4432C693.946 76.6818 695.31 70.7727 698.037 65.7159C700.764 60.6591 704.614 56.7244 709.585 53.9119C714.557 51.0994 720.424 49.6932 727.185 49.6932C732.128 49.6932 736.602 50.4602 740.608 51.9943C744.614 53.5284 748.037 55.7585 750.878 58.6847C753.719 61.5824 755.906 65.1051 757.441 69.2528C758.975 73.4006 759.742 78.0739 759.742 83.2727V88.7273H701.276V75.7727H738.094C738.066 73.8977 737.583 72.25 736.645 70.8295C735.736 69.3807 734.5 68.2585 732.938 67.4631C731.404 66.6392 729.656 66.2273 727.696 66.2273C725.793 66.2273 724.046 66.6392 722.455 67.4631C720.864 68.2585 719.585 69.3665 718.62 70.7869C717.682 72.2074 717.185 73.8693 717.128 75.7727V89.75C717.128 91.8523 717.568 93.7273 718.449 95.375C719.33 97.0227 720.594 98.3153 722.242 99.2528C723.889 100.19 725.878 100.659 728.208 100.659C729.827 100.659 731.304 100.432 732.639 99.9773C734.003 99.5227 735.168 98.8693 736.134 98.017C737.1 97.1364 737.81 96.0852 738.264 94.8636H759.742C759.003 99.4091 757.256 103.358 754.5 106.71C751.745 110.034 748.094 112.619 743.549 114.466C739.031 116.284 733.747 117.193 727.696 117.193Z" fill="black"/>
<path d="M242.821 183.727V190.83H224.568V183.727H242.821ZM228.048 211V182.946C228.048 180.697 228.451 178.833 229.255 177.353C230.06 175.873 231.197 174.767 232.665 174.033C234.132 173.299 235.861 172.932 237.849 172.932C239.092 172.932 240.299 173.027 241.471 173.216C242.655 173.405 243.531 173.571 244.099 173.713L242.679 180.744C242.324 180.638 241.909 180.555 241.436 180.496C240.962 180.425 240.548 180.389 240.193 180.389C239.27 180.389 238.648 180.585 238.329 180.975C238.009 181.366 237.849 181.881 237.849 182.52V211H228.048ZM258.912 211.497C255.953 211.497 253.419 210.911 251.312 209.739C249.205 208.556 247.59 206.91 246.465 204.803C245.341 202.684 244.778 200.228 244.778 197.435C244.778 194.641 245.341 192.191 246.465 190.084C247.59 187.965 249.205 186.32 251.312 185.148C253.419 183.964 255.953 183.372 258.912 183.372C261.871 183.372 264.404 183.964 266.511 185.148C268.618 186.32 270.234 187.965 271.359 190.084C272.483 192.191 273.045 194.641 273.045 197.435C273.045 200.228 272.483 202.684 271.359 204.803C270.234 206.91 268.618 208.556 266.511 209.739C264.404 210.911 261.871 211.497 258.912 211.497ZM258.983 204.253C259.811 204.253 260.528 203.975 261.131 203.418C261.735 202.862 262.203 202.069 262.534 201.039C262.865 200.009 263.031 198.784 263.031 197.364C263.031 195.931 262.865 194.706 262.534 193.688C262.203 192.658 261.735 191.865 261.131 191.309C260.528 190.753 259.811 190.474 258.983 190.474C258.107 190.474 257.355 190.753 256.728 191.309C256.101 191.865 255.621 192.658 255.29 193.688C254.958 194.706 254.793 195.931 254.793 197.364C254.793 198.784 254.958 200.009 255.29 201.039C255.621 202.069 256.101 202.862 256.728 203.418C257.355 203.975 258.107 204.253 258.983 204.253ZM277.023 211V183.727H286.54V188.912H286.824C287.321 186.994 288.108 185.592 289.185 184.704C290.274 183.816 291.547 183.372 293.003 183.372C293.429 183.372 293.849 183.408 294.263 183.479C294.69 183.538 295.098 183.627 295.489 183.745V192.108C295.003 191.942 294.405 191.818 293.695 191.735C292.985 191.652 292.375 191.611 291.866 191.611C290.908 191.611 290.043 191.83 289.274 192.268C288.517 192.694 287.919 193.298 287.481 194.079C287.043 194.848 286.824 195.754 286.824 196.795V211H277.023ZM308.663 211V183.727H317.967V188.912H318.251C318.82 187.207 319.79 185.858 321.163 184.864C322.536 183.869 324.17 183.372 326.064 183.372C327.981 183.372 329.633 183.881 331.018 184.899C332.403 185.905 333.237 187.243 333.521 188.912H333.805C334.267 187.243 335.249 185.905 336.753 184.899C338.256 183.881 340.02 183.372 342.044 183.372C344.66 183.372 346.779 184.213 348.401 185.893C350.034 187.574 350.851 189.812 350.851 192.605V211H341.05V195.091C341.05 193.895 340.748 192.96 340.144 192.286C339.54 191.599 338.73 191.256 337.712 191.256C336.705 191.256 335.906 191.599 335.315 192.286C334.735 192.96 334.445 193.895 334.445 195.091V211H325.07V195.091C325.07 193.895 324.768 192.96 324.164 192.286C323.56 191.599 322.749 191.256 321.731 191.256C321.057 191.256 320.477 191.41 319.991 191.717C319.506 192.025 319.127 192.469 318.855 193.049C318.595 193.617 318.464 194.298 318.464 195.091V211H308.663ZM363.284 211.426C361.544 211.426 360.005 211.142 358.668 210.574C357.342 209.994 356.3 209.118 355.543 207.946C354.785 206.774 354.406 205.283 354.406 203.472C354.406 201.98 354.661 200.708 355.17 199.654C355.679 198.589 356.389 197.719 357.301 197.044C358.212 196.369 359.271 195.854 360.479 195.499C361.698 195.144 363.012 194.913 364.421 194.807C365.948 194.688 367.173 194.546 368.096 194.381C369.031 194.203 369.706 193.96 370.12 193.653C370.534 193.333 370.742 192.913 370.742 192.392V192.321C370.742 191.611 370.469 191.066 369.925 190.688C369.38 190.309 368.682 190.119 367.83 190.119C366.895 190.119 366.131 190.326 365.539 190.741C364.959 191.143 364.61 191.765 364.492 192.605H355.472C355.59 190.948 356.117 189.421 357.052 188.024C357.999 186.616 359.378 185.491 361.189 184.651C363 183.798 365.261 183.372 367.972 183.372C369.925 183.372 371.677 183.603 373.227 184.065C374.778 184.514 376.098 185.148 377.187 185.964C378.276 186.769 379.105 187.716 379.673 188.805C380.253 189.883 380.543 191.054 380.543 192.321V211H371.381V207.165H371.168C370.623 208.183 369.96 209.005 369.179 209.633C368.41 210.26 367.528 210.716 366.533 211C365.551 211.284 364.468 211.426 363.284 211.426ZM366.48 205.247C367.226 205.247 367.924 205.093 368.575 204.786C369.238 204.478 369.777 204.034 370.191 203.454C370.605 202.874 370.813 202.17 370.813 201.341V199.068C370.552 199.175 370.274 199.275 369.978 199.37C369.694 199.465 369.386 199.554 369.055 199.636C368.735 199.719 368.392 199.796 368.025 199.867C367.67 199.938 367.297 200.003 366.906 200.062C366.149 200.181 365.527 200.376 365.042 200.648C364.569 200.909 364.213 201.234 363.977 201.625C363.752 202.004 363.639 202.43 363.639 202.903C363.639 203.661 363.906 204.241 364.438 204.643C364.971 205.046 365.652 205.247 366.48 205.247ZM398.365 211.497C395.406 211.497 392.873 210.911 390.766 209.739C388.659 208.556 387.043 206.91 385.918 204.803C384.794 202.684 384.231 200.228 384.231 197.435C384.231 194.641 384.794 192.191 385.918 190.084C387.043 187.965 388.659 186.32 390.766 185.148C392.873 183.964 395.406 183.372 398.365 183.372C401.04 183.372 403.354 183.857 405.307 184.828C407.272 185.787 408.793 187.148 409.871 188.912C410.948 190.664 411.492 192.723 411.504 195.091H402.413C402.283 193.659 401.869 192.57 401.17 191.824C400.484 191.066 399.596 190.688 398.507 190.688C397.655 190.688 396.909 190.936 396.27 191.433C395.631 191.919 395.133 192.658 394.778 193.653C394.423 194.635 394.246 195.872 394.246 197.364C394.246 198.855 394.423 200.098 394.778 201.092C395.133 202.075 395.631 202.815 396.27 203.312C396.909 203.797 397.655 204.04 398.507 204.04C399.229 204.04 399.868 203.874 400.425 203.543C400.981 203.199 401.431 202.702 401.774 202.051C402.129 201.388 402.342 200.583 402.413 199.636H411.504C411.469 202.039 410.918 204.134 409.853 205.922C408.788 207.697 407.278 209.071 405.325 210.041C403.384 211.012 401.064 211.497 398.365 211.497Z" fill="black"/>
<defs>
<filter id="filter0_d_7_26" x="0" y="18" width="188.612" height="188.612" filterUnits="userSpaceOnUse" color-interpolation-filters="sRGB">
<feFlood flood-opacity="0" result="BackgroundImageFix"/>
<feColorMatrix in="SourceAlpha" type="matrix" values="0 0 0 0 0 0 0 0 0 0 0 0 0 0 0 0 0 0 127 0" result="hardAlpha"/>
<feOffset dy="4"/>
<feGaussianBlur stdDeviation="5"/>
<feComposite in2="hardAlpha" operator="out"/>
<feColorMatrix type="matrix" values="0 0 0 0 0 0 0 0 0 0 0 0 0 0 0 0 0 0 0.15 0"/>
<feBlend mode="normal" in2="BackgroundImageFix" result="effect1_dropShadow_7_26"/>
<feBlend mode="normal" in="SourceGraphic" in2="effect1_dropShadow_7_26" result="shape"/>
</filter>
</defs>
</svg>
